<?xml version="1.0" encoding="UTF-8"?>
<svg id="Capa_2" data-name="Capa 2" xmlns="http://www.w3.org/2000/svg" viewBox="0 0 1080 216.38">
  <defs>
    <style>
      .cls-1 {
        fill: #00b8b8;
      }

      .cls-2 {
        fill: #c2185b;
      }

      .cls-3 {
        fill: #eaeaea;
      }
    </style>
  </defs>
  <g id="Capa_1-2" data-name="Capa 1">
    <g>
      <path class="cls-3" d="M134.23,59.74L62.14,216.38H0L92.04,17.25,77.71,0h78.03c3.95,0,7.68,1.83,10.1,4.96l37.12,50.35-28.12,58.63-40.6-54.21Z"/>
      <g>
        <path class="cls-3" d="M504.18,53.5l21.66-46.43h26.59l-41.86,89.75h-26.59l-14.35-46.15-21.48,46.15h-26.59l35.37-75.95-5.57-13.8h38.66l-.09.18,14.26,46.25Z"/>
        <path class="cls-3" d="M561.16,7.07h93.22l-12.34,26.59h-54.65l-2.29,4.94h42.04l-12.43,26.59h-42.04l-2.28,5.03h54.56l-12.43,26.59-81.16.09,35.37-76.04-5.57-13.8Z"/>
        <path class="cls-3" d="M702.38,7.07l-29.43,63.15h54.56l-12.43,26.59h-81.16l35.37-75.95-5.57-13.8h38.66Z"/>
        <path class="cls-3" d="M769.59,20.87l-5.67-13.8h90.02l-12.43,26.69h-51.36l-4.3,9.32h51.09l-24.86,53.74-77.87-.18,12.43-26.69,51.09.18,4.3-9.32h-51.09l18.64-39.94Z"/>
        <path class="cls-3" d="M865.39,7.07h102.09l-41.86,89.84h-89.84v-.09h-.18l35.37-75.95-5.58-13.8ZM891.8,33.67l-17,36.65h36.56l17.09-36.65h-36.65Z"/>
        <path class="cls-3" d="M1031.74,53.5l21.66-46.43h26.59l-41.86,89.75h-26.59l-14.35-46.15-21.48,46.15h-26.59l35.37-75.95-5.57-13.8h38.66l-.09.18,14.26,46.25Z"/>
      </g>
      <g>
        <path class="cls-3" d="M436.54,126.63l-29.43,63.15h54.56l-12.43,26.59h-81.16l35.37-75.95-5.57-13.8h38.66Z"/>
        <path class="cls-3" d="M498.17,126.54h102.09l-41.86,89.84h-89.84v-.09h-.18l35.37-75.95-5.58-13.8ZM524.58,153.14l-17,36.65h36.56l17.09-36.65h-36.65Z"/>
        <path class="cls-3" d="M608.89,126.54h102.82l-41.86,89.75h-26.59l8.5-18.28h-37.56l-8.5,18.28h-26.59l35.37-75.95-5.57-13.8ZM626.62,171.42h37.56l8.5-18.28h-37.56l-8.5,18.28Z"/>
        <path class="cls-3" d="M787.79,126.54h29.25l-58.4,50.27v.09l-18.37,39.39h-26.69l18.37-39.39.09-.09-11.52-50.27h29.43l6.4,26.59,31.44-26.59Z"/>
        <path class="cls-3" d="M820.73,153.14l12.43-26.59h80.79l-12.34,26.59-57.49,36.56h40.4l-12.43,26.59h-80.79l12.43-26.59h.09l58.86-36.56h-41.95Z"/>
        <path class="cls-3" d="M923.47,126.54h102.82l-41.86,89.75h-26.59l8.5-18.28h-37.56l-8.5,18.28h-26.59l35.37-75.95-5.57-13.8ZM941.2,171.42h37.56l8.5-18.28h-37.56l-8.5,18.28Z"/>
      </g>
      <g>
        <polygon class="cls-2" points="219.98 213.88 247.1 155.15 331.78 155.15 304.66 213.88 219.98 213.88"/>
        <path class="cls-3" d="M327.86,157.65l-24.81,53.73h-79.16l24.81-53.73h79.16M335.69,152.65h-90.19l-29.43,63.73h90.19l29.43-63.73h0Z"/>
      </g>
      <g>
        <polygon class="cls-1" points="182.55 213.88 209.67 155.15 294.34 155.15 267.22 213.88 182.55 213.88"/>
        <path class="cls-3" d="M290.43,157.65l-24.81,53.73h-79.16l24.81-53.73h79.16M298.25,152.65h-90.19l-29.43,63.73h90.19l29.43-63.73h0Z"/>
      </g>
      <polygon class="cls-3" points="245.09 180.02 228.27 216.38 97.7 216.38 140.91 122.97 183.98 173.84 219.77 96.47 233.5 66.79 254.89 20.65 244.51 3.73 325.66 3.73 254.05 160.66 245.09 180.02"/>
    </g>
  </g>
</svg>